<svg width="81" height="80" viewBox="0 0 81 80" fill="none" xmlns="http://www.w3.org/2000/svg">
<path d="M45.0389 10.5053L49.4317 5.99998"  stroke-linecap="round" stroke-linejoin="round"/>
<path d="M35.3748 10.7456L30.8063 5.99998"  stroke-linecap="round" stroke-linejoin="round"/>
<path d="M60.7361 26.2437L67.1788 21.4982"  stroke-linecap="round" stroke-linejoin="round"/>
<path d="M20.2644 26.2437L13.8217 21.4982"  stroke-linecap="round" stroke-linejoin="round"/>
<path d="M66.7688 45.4665H74.5001"  stroke-linecap="round" stroke-linejoin="round"/>
<path d="M14.2312 45.4665H6.49992"  stroke-linecap="round" stroke-linejoin="round"/>
<path d="M57.3386 67.2722L64.1328 71.8977"  stroke-linecap="round" stroke-linejoin="round"/>
<path d="M23.6609 67.2722L16.8667 71.8977"  stroke-linecap="round" stroke-linejoin="round"/>
<path d="M66.4445 44.9257C66.4445 60.7531 54.7978 73.5 40.5292 73.5C26.2607 73.5 14.614 60.7531 14.614 44.9257C14.614 29.0984 26.2607 16.3515 40.5292 16.3515C54.7978 16.3515 66.4445 29.0984 66.4445 44.9257Z"  stroke-linecap="round" stroke-linejoin="round"/>
<path d="M51.8335 18.6149C51.8335 16.2889 50.6425 14.0581 48.5226 12.4133C46.4027 10.7686 43.5274 9.84457 40.5294 9.84457C37.5314 9.84457 34.6562 10.7686 32.5362 12.4133C30.4163 14.0581 29.2253 16.2889 29.2253 18.6149"  stroke-linecap="round" stroke-linejoin="round"/>
<path d="M57.058 22.8032C55.5569 25.178 53.21 27.1825 50.2857 28.5874C47.3614 29.9923 43.9779 30.7409 40.5221 30.7475C37.0663 30.7542 33.6779 30.0186 30.7443 28.625C27.8108 27.2314 25.4506 25.236 23.9338 22.867"  stroke-linecap="round" stroke-linejoin="round"/>
<path d="M40.4961 31.6303C40.4961 42.0624 40.2369 63.9284 53.571 69.5865"  stroke-linecap="round" stroke-linejoin="round"/>
<path d="M40.496 31.1889C40.496 41.621 40.7548 63.9284 27.4207 69.5865"  stroke-linecap="round" stroke-linejoin="round"/>
</svg>
