<svg width="81" height="80" style='stroke: #068DAA' viewBox="0 0 81 80" fill="none" xmlns="http://www.w3.org/2000/svg">
<path d="M44.9148 21.8703C44.9148 22.5234 44.3397 23.1076 43.5604 23.1076C42.7811 23.1076 42.2059 22.5234 42.2059 21.8703C42.2059 21.2173 42.7811 20.6331 43.5604 20.6331C44.3397 20.6331 44.9148 21.2173 44.9148 21.8703Z" stroke-linecap="round" stroke-linejoin="round"/>
<path d="M35.4904 43.8527C39.3505 44.1309 47.2494 45.1095 50.081 51.7965C52.9126 58.4836 50.081 68.4066 42.923 71.9797C35.765 75.5529 28.8619 73.2752 19.9585 66.7088C11.0552 60.1424 8.9507 46.188 11.516 37.8972C14.0813 29.6063 22.0929 23.4819 25.5967 20.8371M34.8432 25.9207C31.6924 25.6018 25.2544 23.9605 24.3219 17.0952C23.3894 10.2299 30.3719 6.00009 35.1766 6.00009C39.9813 6.0001 45.0018 9.02006 46.0019 15.5196C50.1758 15.8822 58.1837 17.2406 59.6709 19.9651C61.158 22.6896 62.1171 21.7515 62.6075 22.6896C63.0979 23.6277 61.8869 23.5761 60.7789 25.3485C59.6709 27.121 60.4749 27.3462 54.2582 30.1505C48.0415 32.9548 45.4822 38.507 46.6883 47.3887M70.4521 42.7479C70.8045 48.8323 69.186 54.8725 65.8173 60.0446C62.4487 65.2168 57.4939 69.269 51.6288 71.6487C45.7638 74.0283 39.2741 74.6195 33.0448 73.3415" stroke-linecap="round" stroke-linejoin="round"/>
</svg>
