<svg width="64" height="64" viewBox="0 0 64 64" fill="none" xmlns="http://www.w3.org/2000/svg">
<g clip-path="url(#clip0)">
<rect x="18.7715" y="27.5446" width="3.95634" height="10.7713" transform="rotate(-13.7458 18.7715 27.5446)" stroke="#068DAA" stroke-linejoin="round"/>
<rect x="2.04345" y="33.5387" width="17.4784" height="6.39136" transform="rotate(-13.7458 2.04345 33.5387)" stroke="#068DAA" stroke-linejoin="round"/>
<path d="M12.2941 55.8213L8.11535 38.7387L16.7728 36.6209L20.9515 53.7035L12.2941 55.8213Z" stroke="#068DAA" stroke-linejoin="round"/>
<path d="M16.0062 55.4181C16.5675 56.85 17.3387 59.3461 13.8421 62.9909" stroke="#068DAA" stroke-linecap="round"/>
<path d="M17.8935 55.0082C18.5895 56.3927 19.3993 59.5647 16.2729 62.9998" stroke="#068DAA" stroke-linecap="round"/>
<path d="M45.7907 42.6931C47.0851 43.8284 48.6491 44.6125 50.3332 44.9707C52.0172 45.3289 53.765 45.2491 55.4094 44.739C57.0538 44.2289 58.5399 43.3054 59.7255 42.057C60.9111 40.8086 61.7567 39.2769 62.1814 37.6084C62.606 35.9398 62.5956 34.1903 62.151 32.5269C61.7065 30.8636 60.8427 29.3421 59.6423 28.1079C58.4418 26.8737 56.9448 25.9681 55.2945 25.4776C53.6441 24.9872 51.8955 24.9282 50.2158 25.3065" stroke="#068DAA" stroke-linecap="round"/>
<path d="M33.0674 40.0154C33.1517 40.8905 33.459 41.7293 33.96 42.4517C34.461 43.174 35.1389 43.7558 35.929 44.1414C36.719 44.5269 37.5947 44.7034 38.4724 44.6539C39.3501 44.6043 40.2005 44.3305 40.9421 43.8585C41.6838 43.3866 42.292 42.7322 42.7086 41.9581C43.1251 41.184 43.3362 40.3159 43.3215 39.4369C43.3068 38.5579 43.0669 37.6974 42.6247 36.9376C42.1825 36.1779 41.5528 35.5442 40.7958 35.0973" stroke="#068DAA" stroke-linecap="round"/>
<path d="M31.7206 12.1663C31.5875 11.1784 31.2032 10.2411 30.6045 9.44408C30.0057 8.64707 29.2126 8.01697 28.3008 7.61402C27.389 7.21108 26.3891 7.04876 25.3967 7.14258C24.4042 7.2364 23.4525 7.58323 22.6323 8.1499C21.8122 8.71658 21.1512 9.48415 20.7124 10.3792C20.2736 11.2743 20.0718 12.267 20.1262 13.2624C20.1806 14.2578 20.4894 15.2225 21.0231 16.0645C21.5569 16.9064 22.2976 17.5974 23.1746 18.0713" stroke="#068DAA" stroke-linecap="round"/>
<path d="M57.4987 19.8365C58.4469 19.4113 59.2701 18.75 59.8898 17.9158C60.5094 17.0815 60.9046 16.1023 61.0378 15.0717C61.1709 14.0411 61.0374 12.9936 60.6501 12.0293C60.2628 11.065 59.6346 10.2162 58.8256 9.56399C58.0166 8.91179 57.0538 8.47802 56.0293 8.30414C55.0048 8.13027 53.9528 8.22211 52.9739 8.57087C51.9951 8.91964 51.122 9.51368 50.4382 10.2962C49.7545 11.0787 49.2829 12.0235 49.0685 13.0404" stroke="#068DAA" stroke-linecap="round"/>
<path d="M44.7882 7.13012C45.1055 6.5293 45.2632 5.85716 45.2465 5.17795C45.2298 4.49873 45.0392 3.83516 44.6928 3.25067C44.3464 2.66619 43.8559 2.18032 43.2681 1.83954C42.6803 1.49875 42.015 1.31443 41.3356 1.30421C40.6563 1.29398 39.9857 1.45819 39.3879 1.78113C38.7902 2.10407 38.2852 2.57495 37.9214 3.14875C37.5576 3.72255 37.347 4.38008 37.3099 5.05848C37.2727 5.73688 37.4102 6.41347 37.7092 7.02356" stroke="#068DAA" stroke-linecap="round"/>
<path d="M32.6061 18.667C33.1586 17.4842 33.9997 16.4694 35.0488 15.7197C36.0979 14.9699 37.32 14.5103 38.5982 14.3847C39.8764 14.2592 41.168 14.4719 42.3496 15.0025C43.5311 15.5331 44.5631 16.3638 45.3468 17.4154C46.1305 18.4669 46.6398 19.704 46.8259 21.0084C47.0121 22.3129 46.8688 23.641 46.4099 24.8659C45.951 26.0908 45.1918 27.1714 44.2048 28.0045C43.2179 28.8376 42.0362 29.3953 40.7727 29.6243" stroke="#068DAA" stroke-linecap="round"/>
</g>
<defs>
<clipPath id="clip0">
<rect width="64" height="64" fill="white"/>
</clipPath>
</defs>
</svg>
