<svg width="64" height="64" viewBox="0 0 64 64" fill="none" xmlns="http://www.w3.org/2000/svg">
<path d="M25.1816 11.6189C28.5882 11.4392 31.9946 11.9743 35.1819 13.1899C38.3692 14.4055 41.2668 16.2747 43.6884 18.6773C46.1101 21.0799 48.0021 23.9627 49.2428 27.1403C50.4835 30.3179 51.0455 33.72 50.8926 37.1278" stroke="#068DAA" stroke-linecap="round"/>
<path d="M21.1392 12.6859C16.819 16.7114 14.9106 21.5868 14.8245 26.4111C14.7297 31.7232 16.8438 36.9457 20.3208 40.8879C23.7988 44.8313 28.6647 47.5195 34.0931 47.7154C39.1695 47.8986 44.6741 45.9002 49.9324 40.8268C49.15 44.6555 47.4405 48.2431 44.9438 51.27C42.1138 54.7009 38.3844 57.2759 34.1733 58.7065C29.9623 60.1371 25.436 60.3668 21.1018 59.3698C16.7676 58.3728 12.7966 56.1886 9.6339 53.0618C6.47119 49.935 4.2417 45.9892 3.19526 41.6667C2.14883 37.3441 2.3268 32.8156 3.70923 28.5885C5.09166 24.3613 7.62393 20.6027 11.0223 17.7338C13.9501 15.2621 17.4211 13.5349 21.1392 12.6859Z" stroke="#068DAA" stroke-linecap="round" stroke-linejoin="round"/>
<path d="M26.4702 0.719727V8.86878" stroke="#068DAA" stroke-linecap="round"/>
<path d="M51.645 10.2852L45.7143 15.8738" stroke="#068DAA" stroke-linecap="round"/>
<path d="M63.0059 36.5713H58.9316H54.8573" stroke="#068DAA" stroke-linecap="round"/>
<path d="M51.353 61.8828L45.7143 56.0003" stroke="#068DAA" stroke-linecap="round"/>
</svg>
