<svg width="40" height="40" viewBox="0 0 40 40" fill="none" xmlns="http://www.w3.org/2000/svg">
<rect width="40" height="40" fill="#F3FBFD"/>
<path d="M18.9914 25.7917C22.7469 25.7917 25.7914 22.7472 25.7914 18.9917C25.7914 15.2361 22.7469 12.1917 18.9914 12.1917C15.2359 12.1917 12.1914 15.2361 12.1914 18.9917C12.1914 22.7472 15.2359 25.7917 18.9914 25.7917Z" stroke="#C8E5EB" stroke-linecap="round" stroke-linejoin="round"/>
<path d="M31.75 11.5C33.5449 11.5 35 10.0449 35 8.25C35 6.45507 33.5449 5 31.75 5C29.9551 5 28.5 6.45507 28.5 8.25C28.5 10.0449 29.9551 11.5 31.75 11.5Z" stroke="#C8E5EB" stroke-linecap="round" stroke-linejoin="round"/>
<path d="M17.8585 7.65833C19.1103 7.65833 20.1251 6.64351 20.1251 5.39167C20.1251 4.13982 19.1103 3.125 17.8585 3.125C16.6066 3.125 15.5918 4.13982 15.5918 5.39167C15.5918 6.64351 16.6066 7.65833 17.8585 7.65833Z" stroke="#C8E5EB" stroke-linecap="round" stroke-linejoin="round"/>
<path d="M6.52497 14.4584C7.77681 14.4584 8.79163 13.4436 8.79163 12.1917C8.79163 10.9399 7.77681 9.92505 6.52497 9.92505C5.27312 9.92505 4.2583 10.9399 4.2583 12.1917C4.2583 13.4436 5.27312 14.4584 6.52497 14.4584Z" stroke="#C8E5EB" stroke-linecap="round" stroke-linejoin="round"/>
<path d="M5.95833 31.4582C7.52314 31.4582 8.79167 30.1896 8.79167 28.6248C8.79167 27.06 7.52314 25.7915 5.95833 25.7915C4.39353 25.7915 3.125 27.06 3.125 28.6248C3.125 30.1896 4.39353 31.4582 5.95833 31.4582Z" stroke="#C8E5EB" stroke-linecap="round" stroke-linejoin="round"/>
<path d="M17.8585 35.9918C19.1103 35.9918 20.1251 34.977 20.1251 33.7252C20.1251 32.4733 19.1103 31.4585 17.8585 31.4585C16.6066 31.4585 15.5918 32.4733 15.5918 33.7252C15.5918 34.977 16.6066 35.9918 17.8585 35.9918Z" stroke="#C8E5EB" stroke-linecap="round" stroke-linejoin="round"/>
<path d="M33.1581 32.625C35.3488 32.625 37.1247 30.849 37.1247 28.6583C37.1247 26.4676 35.3488 24.6917 33.1581 24.6917C30.9673 24.6917 29.1914 26.4676 29.1914 28.6583C29.1914 30.849 30.9673 32.625 33.1581 32.625Z" stroke="#C8E5EB" stroke-linecap="round" stroke-linejoin="round"/>
<path d="M25 22.25L30.3249 25.825" stroke="#C8E5EB" stroke-linecap="round" stroke-linejoin="round"/>
<path d="M17.8584 25.7915V31.4582" stroke="#C8E5EB" stroke-linecap="round" stroke-linejoin="round"/>
<path d="M12.7584 22.3918L8.2251 26.3585" stroke="#C8E5EB" stroke-linecap="round" stroke-linejoin="round"/>
<path d="M12.7587 15.5916L8.79199 13.325" stroke="#C8E5EB" stroke-linecap="round" stroke-linejoin="round"/>
<path d="M24.25 14.5L29.25 10.5" stroke="#C8E5EB" stroke-linecap="round" stroke-linejoin="round"/>
<path d="M18.9915 12.1915L18.4248 7.6582" stroke="#C8E5EB" stroke-linecap="round" stroke-linejoin="round"/>
</svg>
