<svg width="40" height="40" viewBox="0 0 40 40" fill="none" xmlns="http://www.w3.org/2000/svg">
<rect width="40" height="40" fill="#F3FBFD"/>
<path d="M22.2695 5.25265L24.4659 3" stroke="#C8E5EB" stroke-linecap="round" stroke-linejoin="round"/>
<path d="M17.4376 5.3728L15.1533 3" stroke="#C8E5EB" stroke-linecap="round" stroke-linejoin="round"/>
<path d="M30.1182 13.1218L33.3395 10.749" stroke="#C8E5EB" stroke-linecap="round" stroke-linejoin="round"/>
<path d="M9.88232 13.1218L6.66096 10.749" stroke="#C8E5EB" stroke-linecap="round" stroke-linejoin="round"/>
<path d="M33.1343 22.7334H36.9999" stroke="#C8E5EB" stroke-linecap="round" stroke-linejoin="round"/>
<path d="M6.86572 22.7334H3.00008" stroke="#C8E5EB" stroke-linecap="round" stroke-linejoin="round"/>
<path d="M28.4194 33.636L31.8165 35.9487" stroke="#C8E5EB" stroke-linecap="round" stroke-linejoin="round"/>
<path d="M11.5806 33.636L8.18348 35.9487" stroke="#C8E5EB" stroke-linecap="round" stroke-linejoin="round"/>
<path d="M32.7224 22.4629C32.7224 30.2616 26.9889 36.5 20.0147 36.5C13.0406 36.5 7.30713 30.2616 7.30713 22.4629C7.30713 14.6642 13.0406 8.42578 20.0147 8.42578C26.9889 8.42578 32.7224 14.6642 32.7224 22.4629Z" stroke="#C8E5EB" stroke-linecap="round" stroke-linejoin="round"/>
<path d="M25.6669 9.30729C25.6669 8.14427 25.0714 7.02888 24.0114 6.2065C22.9515 5.38413 21.5138 4.92212 20.0148 4.92212C18.5158 4.92212 17.0782 5.38413 16.0182 6.2065C14.9583 7.02888 14.3628 8.14427 14.3628 9.30728" stroke="#C8E5EB" stroke-linecap="round" stroke-linejoin="round"/>
<path d="M28.2789 11.4016C27.5283 12.589 26.3549 13.5912 24.8927 14.2937C23.4306 14.9961 21.7388 15.3704 20.0109 15.3738C18.283 15.3771 16.5888 15.0093 15.122 14.3125C13.6553 13.6157 12.4752 12.618 11.7168 11.4335" stroke="#C8E5EB" stroke-linecap="round" stroke-linejoin="round"/>
<path d="M19.9982 15.8152C19.9982 21.0312 19.8686 31.9643 26.5356 34.7933" stroke="#C8E5EB" stroke-linecap="round" stroke-linejoin="round"/>
<path d="M19.9981 15.5945C19.9981 20.8105 20.1275 31.9642 13.4604 34.7933" stroke="#C8E5EB" stroke-linecap="round" stroke-linejoin="round"/>
</svg>
