<svg width="40" height="40" viewBox="0 0 40 40" fill="none" xmlns="http://www.w3.org/2000/svg">
<rect width="40" height="40" fill="#F3FBFD"/>
<mask id="path-1-inside-1" fill="white">
<ellipse cx="21.5303" cy="10.9353" rx="0.927225" ry="0.868623"/>
</mask>
<path d="M21.4575 10.9353C21.4575 10.877 21.4845 10.8363 21.5022 10.8197C21.5188 10.8041 21.5311 10.8039 21.5303 10.8039V12.8039C22.5321 12.8039 23.4575 12.0278 23.4575 10.9353H21.4575ZM21.5303 10.8039C21.5294 10.8039 21.5417 10.8041 21.5583 10.8197C21.576 10.8363 21.603 10.877 21.603 10.9353H19.603C19.603 12.0278 20.5284 12.8039 21.5303 12.8039V10.8039ZM21.603 10.9353C21.603 10.9935 21.576 11.0342 21.5583 11.0509C21.5417 11.0664 21.5294 11.0667 21.5303 11.0667V9.06665C20.5284 9.06665 19.603 9.84277 19.603 10.9353H21.603ZM21.5303 11.0667C21.5311 11.0667 21.5188 11.0664 21.5022 11.0509C21.4845 11.0342 21.4575 10.9935 21.4575 10.9353H23.4575C23.4575 9.84277 22.5321 9.06665 21.5303 9.06665V11.0667Z" fill="#C8E5EB" mask="url(#path-1-inside-1)"/>
<path d="M17.4955 21.9263C19.4255 22.0654 23.375 22.5547 24.7908 25.8982C26.2065 29.2418 24.7908 34.2033 21.2117 35.9898C17.6327 37.7764 14.1812 36.6376 9.72952 33.3544C5.27782 30.0712 4.22559 23.094 5.50825 18.9485C6.79091 14.8031 10.7967 11.7409 12.5486 10.4185M17.1719 12.9603C15.5964 12.8008 12.3774 11.9802 11.9112 8.54756C11.4449 5.11492 14.9362 3 17.3385 3C19.7409 3 22.2511 4.50998 22.7512 7.75974C24.8382 7.94106 28.8421 8.62028 29.5857 9.98251C30.3292 11.3447 30.8088 10.8757 31.054 11.3447C31.2992 11.8138 30.6937 11.788 30.1397 12.6742C29.5857 13.5604 29.9877 13.6731 26.8793 15.0752C23.771 16.4773 22.4914 19.2535 23.0944 23.6943M34.9763 21.3739C35.1525 24.4161 34.3432 27.4362 32.6589 30.0223C30.9746 32.6083 28.4972 34.6345 25.5647 35.8243C22.6321 37.0141 19.3873 37.3097 16.2727 36.6707" stroke="#C8E5EB" stroke-linecap="round" stroke-linejoin="round"/>
</svg>
