<svg width="32" height="32" fill="none" xmlns="http://www.w3.org/2000/svg"><path xmlns="http://www.w3.org/2000/svg" d="M17.635 32c8.212 0 14.869-6.681 14.869-14.922 0-8.242-6.657-14.923-14.87-14.923-8.211 0-14.868 6.681-14.868 14.923C2.766 25.319 9.423 32 17.635 32z" fill="#C8E5EB"/><path xmlns="http://www.w3.org/2000/svg" fill-rule="evenodd" clip-rule="evenodd" d="M1.796 22.668c-.42-.79-.771-1.615-1.048-2.466a15.5 15.5 0 01-.124-9.108A15.45 15.45 0 015.636 3.5a15.346 15.346 0 0117.278-1.53l.009.012a15.516 15.516 0 017.148 8.806c.14.44.26.89.36 1.346l.002.006c.584 2.68.448 5.467-.396 8.076a15.457 15.457 0 01-4.405 6.77 15.376 15.376 0 01-7.21 3.61 15.346 15.346 0 01-9.33-1.052 15.507 15.507 0 01-7.302-6.87 15.38 15.38 0 002.212 1.515 14.427 14.427 0 004.732 4.01 15.305 15.305 0 01-.326-2.355c-.02-.317-.03-.636-.03-.957v-.132a15.47 15.47 0 014.553-10.839A15.36 15.36 0 0123.769 9.44c.687-.003 1.372.04 2.052.131a14.382 14.382 0 00-1.53-5.408 14.306 14.306 0 00-9.016-3.106 14.307 14.307 0 00-8.968 3.257 14.398 14.398 0 00-4.948 8.184 14.436 14.436 0 001.261 9.487h.001c.395.774.859 1.51 1.387 2.198-.78-.44-1.52-.947-2.212-1.515zm23.41-7.64c.375-1.194.592-2.432.646-3.683l-4.23 3.683h3.585zm-1.437-4.543c-.803 0-1.605.068-2.398.203l-.453 3.562 4.244-3.695c-.458-.045-.922-.07-1.393-.07zm-.988 9.136a14.388 14.388 0 002.05-3.541h-4.412l-2.826 2.46 5.188 1.081zm-2.495-8.708c-.907.228-1.789.546-2.634.948l-.748 5.89 2.824-2.468.558-4.37zm-1.17 12.008A14.395 14.395 0 0022 20.53l-5.395-1.126-2.896 2.521 5.408.996zm-7.594 2.184c2.12.002 4.215-.47 6.13-1.382l-4.965-.914-2.558 2.226c.46.045.924.07 1.393.07zm4.99-12.637a14.443 14.443 0 00-2.49 1.864l-1.092 6.873 2.775-2.424.806-6.313zm-4.813 9.81l1.049-6.6a14.364 14.364 0 00-3.313 8.566l2.264-1.966zm-1.74 6.488a14.208 14.208 0 005.434 1.076l-.001-.008c2.214 0 4.398-.515 6.38-1.503a14.358 14.358 0 005.05-4.195A14.447 14.447 0 0028.78 10.27a14.417 14.417 0 00-2.615-4.323 15.323 15.323 0 01.748 4.758v.131a15.492 15.492 0 01-4.557 10.831 15.38 15.38 0 01-10.83 4.485 15.129 15.129 0 01-2.053-.132c.072.93.235 1.85.486 2.747z" fill="#068DAA"/></svg>