<svg width="148" height="44" viewBox="0 0 148 44" fill="none" xmlns="http://www.w3.org/2000/svg">
<path d="M58.7162 18.2358C57.898 18.2597 57.089 18.0588 56.378 17.6554C55.7324 17.271 55.216 16.7046 54.8944 16.0279C54.5388 15.2701 54.3634 14.441 54.3817 13.6049V13.377C54.3653 12.552 54.5395 11.7342 54.8908 10.9865C55.2104 10.3144 55.7146 9.74577 56.3453 9.34645C57.0266 8.93377 57.8133 8.7259 58.6107 8.74792C59.193 8.74213 59.7721 8.83445 60.3235 9.02097C60.8266 9.18818 61.2936 9.44829 61.6998 9.78767V11.916H60.4762L60.3144 10.4838C60.1704 10.3801 60.0148 10.2933 59.8507 10.2253C59.6712 10.1506 59.484 10.0954 59.2926 10.0607C59.0755 10.021 58.8551 10.0016 58.6344 10.0028C58.1256 9.9887 57.6254 10.1349 57.2053 10.4206C56.7946 10.7154 56.4788 11.1224 56.2962 11.5923C56.0763 12.155 55.97 12.7554 55.9835 13.359V13.6121C55.9681 14.231 56.0807 14.8465 56.3144 15.4204C56.511 15.8937 56.8445 16.2984 57.2726 16.5831C57.7148 16.8627 58.2305 17.0055 58.7544 16.9936C59.0344 16.994 59.3134 16.9606 59.5853 16.8941C59.8369 16.8377 60.081 16.7521 60.3125 16.6391L60.4835 15.3462H61.6944V17.4619C61.2895 17.7148 60.848 17.9044 60.3853 18.0243C59.8414 18.1709 59.2797 18.2421 58.7162 18.2358Z" fill="#068DAA"/>
<path d="M66.7765 18.2361C66.2025 18.2465 65.6332 18.131 65.1092 17.8979C64.6187 17.6698 64.1843 17.3378 63.8365 16.9251C63.4711 16.488 63.1933 15.9853 63.0183 15.4441C62.8191 14.8353 62.7208 14.1983 62.7274 13.5581V13.4189C62.7212 12.7849 62.8182 12.1541 63.0146 11.551C63.1905 11.0091 63.4682 10.5053 63.8328 10.0664C64.1796 9.65214 64.6142 9.3193 65.1055 9.09175C65.6272 8.85648 66.1946 8.73855 66.7674 8.74637C67.3526 8.73699 67.9328 8.85486 68.4674 9.09175C68.9594 9.31821 69.3942 9.65122 69.7401 10.0664C70.102 10.5055 70.376 11.0094 70.5474 11.551C70.7395 12.155 70.834 12.7854 70.8274 13.4189V13.5581C70.8344 14.194 70.7399 14.8269 70.5474 15.4333C70.3768 15.9741 70.1027 16.477 69.7401 16.9143C69.3931 17.3278 68.9585 17.66 68.4674 17.8871C67.936 18.1245 67.3589 18.2436 66.7765 18.2361ZM66.7765 16.9703C67.2737 16.9893 67.7626 16.8388 68.1619 16.5436C68.5427 16.2326 68.8239 15.8178 68.971 15.3501C69.1577 14.7713 69.2468 14.1658 69.2347 13.5581V13.4062C69.2457 12.8066 69.1553 12.2094 68.9674 11.6396C68.8169 11.1741 68.5355 10.7612 68.1565 10.4497C67.7585 10.1514 67.269 9.9993 66.771 10.0194C66.2864 10.0028 65.8112 10.155 65.4274 10.4497C65.049 10.7625 64.7667 11.1748 64.6128 11.6396C64.4205 12.2085 64.3277 12.8061 64.3383 13.4062V13.5581C64.3277 14.1636 64.4206 14.7665 64.6128 15.3411C64.7642 15.81 65.0483 16.2256 65.431 16.5381C65.8163 16.8313 66.2915 16.9834 66.7765 16.9685V16.9703Z" fill="#068DAA"/>
<path d="M71.6802 18.1023V17.1276L72.6911 16.9468V10.0555L71.6802 9.86386V8.88379H74.3147L78.5674 15.6141L78.6056 15.6015V10.0555L77.4347 9.86386V8.88379H81.0711V9.86386L80.0583 10.0555V18.1023H78.5365L74.182 11.3973H74.1438V16.9378L75.3165 17.1186V18.0932L71.6802 18.1023Z" fill="#068DAA"/>
<path d="M84.0562 18.1023V17.1276L85.0672 16.9468V10.1062H83.2035L83.0617 11.2833H81.8599V8.88379H89.8872V11.2833H88.6781L88.5454 10.1062H86.6726V16.9378L87.6854 17.1186V18.0932L84.0562 18.1023Z" fill="#068DAA"/>
<path d="M90.7402 18.1023V17.1276L91.7529 16.9468V10.0555L90.7402 9.86386V8.88379H94.3638V9.86386L93.3565 10.0555V16.9378L94.3638 17.1186V18.0932L90.7402 18.1023Z" fill="#068DAA"/>
<path d="M95.2163 18.1023V17.1276L96.229 16.9468V10.0555L95.2163 9.86386V8.88379H97.8527L102.105 15.6141L102.144 15.6015V10.0555L100.971 9.86386V8.88379H104.607V9.86386L103.596 10.0555V18.1023H102.074L97.7108 11.3973H97.6727V16.9378L98.8436 17.1186V18.0932L95.2163 18.1023Z" fill="#068DAA"/>
<path d="M105.389 18.1023V17.1276L106.402 16.9468V10.0555L105.389 9.86386V8.88379H112.451V11.258H111.202L111.091 10.1116H108V12.7209H111.253V13.9541H108V16.8871H111.273L111.382 15.7154H112.616V18.1023H105.389Z" fill="#068DAA"/>
<path d="M113.716 18.1023V17.1276L114.729 16.9468V10.0555L113.716 9.86386V8.88379H116.353L120.605 15.6141L120.644 15.6015V10.0555L119.473 9.86386V8.88379H123.109V9.86386L122.096 10.0555V18.1023H120.574L116.211 11.3973H116.173V16.9378L117.344 17.1186V18.0932L113.716 18.1023Z" fill="#068DAA"/>
<path d="M126.095 18.1023V17.1276L127.106 16.9468V10.1062H125.24L125.1 11.2833H123.898V8.88379H131.926V11.2833H130.717L130.577 10.1062H128.711V16.9378L129.724 17.1186V18.0932L126.095 18.1023Z" fill="#068DAA"/>
<path d="M131.391 18.1023V17.1276L132.065 17.0318L135.134 8.88379H136.694L139.725 17.0318L140.4 17.1276V18.1023H137.454V17.1276L138.118 17.0065L137.627 15.5599H134.182L133.68 17.0065L134.347 17.1276V18.1023H131.391ZM134.592 14.3357H137.209L136 10.9217L135.916 10.6758H135.878L135.789 10.9343L134.592 14.3357Z" fill="#068DAA"/>
<path d="M141.156 18.1023V17.1276L142.169 16.9468V10.0555L141.156 9.86386V8.88379H144.862V9.86386L143.771 10.0555V16.8799H146.667L146.774 15.4875H148V18.1023H141.156Z" fill="#068DAA"/>
<path d="M54.3945 33.6623V32.6877L55.4073 32.5068V25.6156L54.3945 25.4257V24.4438H61.4545V26.8181H60.2072L60.0981 25.6717H57.0072V28.281H60.26V29.516H57.0109V32.4472H60.2709L60.3781 31.2754H61.6145V33.6623H54.3945Z" fill="#068DAA"/>
<path d="M67.0388 33.796C66.2203 33.8196 65.4109 33.6195 64.6988 33.2173C64.0539 32.8321 63.5377 32.2659 63.2152 31.5899C62.8596 30.8327 62.6841 30.0042 62.7025 29.1687V28.9336C62.6867 28.1084 62.8615 27.2906 63.2134 26.5431C63.5324 25.8709 64.0368 25.3028 64.6679 24.9048C65.3499 24.4922 66.1372 24.2843 66.9352 24.3063C67.5173 24.3011 68.0962 24.3927 68.6479 24.5775C69.1497 24.7466 69.6158 25.0065 70.0225 25.3442V27.4816H68.8007L68.6352 26.0567C68.4904 25.9526 68.3343 25.8653 68.1698 25.7963C67.9909 25.7213 67.8043 25.6662 67.6134 25.6317C67.3957 25.592 67.1747 25.5726 66.9534 25.5738C66.4448 25.5611 65.945 25.7071 65.5243 25.9916C65.1149 26.2877 64.7994 26.6944 64.6152 27.1633C64.397 27.7265 64.2914 28.3266 64.3043 28.93V29.1777C64.2883 29.7967 64.401 30.4123 64.6352 30.986C64.8293 31.4582 65.1603 31.8624 65.5861 32.1469C66.0304 32.4258 66.5482 32.5668 67.0734 32.5519C67.3533 32.5519 67.6321 32.5191 67.9043 32.4543C68.1564 32.3985 68.4006 32.3123 68.6316 32.1975L68.8134 30.9064H70.0225V33.0202C69.6185 33.2742 69.1776 33.4645 68.7152 33.5844C68.1688 33.7309 67.6047 33.8021 67.0388 33.796Z" fill="#068DAA"/>
<path d="M75.0909 33.7963C74.5164 33.8044 73.9471 33.6865 73.4236 33.4509C72.9327 33.2243 72.4981 32.8928 72.1509 32.4799C71.7871 32.0413 71.5101 31.5382 71.3345 30.9971C71.1369 30.3924 71.0399 29.7596 71.0473 29.1237V28.9845C71.0411 28.3516 71.1387 27.7219 71.3364 27.1202C71.5121 26.5786 71.7891 26.075 72.1527 25.6356C72.4986 25.2204 72.9335 24.8874 73.4255 24.661C73.9462 24.4249 74.5132 24.3069 75.0855 24.3156C75.6707 24.3051 76.2512 24.4231 76.7855 24.661C77.2781 24.8864 77.7132 25.2195 78.0582 25.6356C78.421 26.0743 78.6957 26.5783 78.8673 27.1202C79.0595 27.7241 79.154 28.3547 79.1473 28.9881V29.1274C79.1543 29.7626 79.0598 30.395 78.8673 31.0007C78.6956 31.542 78.421 32.0454 78.0582 32.4835C77.7119 32.8973 77.2771 33.2291 76.7855 33.4545C76.2524 33.6899 75.6741 33.8066 75.0909 33.7963ZM75.0909 32.5305C75.5885 32.5502 76.0778 32.3989 76.4764 32.1019C76.8568 31.791 77.1375 31.3762 77.2836 30.9085C77.4705 30.3322 77.5602 29.7291 77.5491 29.1237V28.9718C77.5602 28.3722 77.4699 27.775 77.2818 27.2052C77.1311 26.7393 76.849 26.3264 76.4691 26.0153C76.0736 25.7175 75.5867 25.5648 75.0909 25.5832C74.6066 25.5669 74.1319 25.7198 73.7491 26.0153C73.3697 26.3276 73.0868 26.74 72.9327 27.2052C72.7408 27.7742 72.6486 28.3718 72.66 28.9718V29.1237C72.6491 29.7291 72.7413 30.3319 72.9327 30.9067C73.0855 31.3744 73.3694 31.7891 73.7509 32.1019C74.1349 32.3934 74.608 32.5448 75.0909 32.5305Z" fill="#068DAA"/>
<path d="M83.5913 33.7962C82.9952 33.8014 82.4013 33.7222 81.8276 33.5611C81.2589 33.3925 80.7229 33.1296 80.2422 32.7836V30.6625H81.484L81.6876 32.0367C81.9412 32.2101 82.222 32.3403 82.5186 32.4219C82.8671 32.5222 83.2285 32.5716 83.5913 32.5684C83.9164 32.5773 84.2401 32.5227 84.544 32.4074C84.7798 32.3159 84.9838 32.1582 85.1313 31.9536C85.271 31.7505 85.3429 31.5088 85.3367 31.2628C85.3402 31.033 85.2771 30.807 85.1549 30.6118C85.0055 30.394 84.8019 30.2183 84.564 30.1019C84.2075 29.922 83.8318 29.7825 83.444 29.686C82.8412 29.5354 82.2584 29.3145 81.7076 29.0278C81.289 28.8161 80.9288 28.5057 80.6586 28.1237C80.4184 27.7366 80.2956 27.2889 80.3046 26.8342C80.3136 26.3795 80.4542 25.9369 80.7095 25.5596C80.9954 25.1632 81.3836 24.8509 81.8331 24.6555C82.3565 24.4265 82.9232 24.3118 83.4949 24.3191C84.1119 24.3023 84.7271 24.3923 85.3131 24.5849C85.7988 24.7465 86.2523 24.9913 86.6531 25.3082V27.2973H85.4367L85.2076 26.0062C84.9993 25.8672 84.7705 25.761 84.5295 25.6916C84.2101 25.5991 83.8784 25.5552 83.5458 25.5614C83.2537 25.5562 82.9635 25.6104 82.6931 25.7205C82.4625 25.8141 82.2619 25.9685 82.1131 26.1672C81.9706 26.3678 81.8973 26.6088 81.904 26.8543C81.8984 27.0709 81.9621 27.2836 82.0858 27.4619C82.2497 27.6673 82.4621 27.8295 82.704 27.9338C83.0817 28.1082 83.4734 28.2509 83.8749 28.3606C84.8798 28.627 85.6416 28.9941 86.1604 29.4618C86.413 29.6864 86.6133 29.9631 86.7474 30.2726C86.8814 30.5821 86.9461 30.9169 86.9367 31.2538C86.9471 31.7334 86.8011 32.2035 86.5204 32.5937C86.2201 32.992 85.8148 33.2999 85.3495 33.4834C84.7902 33.703 84.1924 33.8093 83.5913 33.7962Z" fill="#068DAA"/>
<path d="M87.8179 33.6623V32.6877L88.8306 32.5068V25.6156L87.8179 25.4257V24.4438H94.8779V26.8181H93.6361L93.527 25.6717H90.4361V28.281H93.6888V29.516H90.4415V32.4472H93.7015L93.8179 31.279H95.0524V33.6659L87.8179 33.6623Z" fill="#068DAA"/>
<path d="M96.1455 33.6622V32.6875L97.1582 32.5067V25.6154L96.1455 25.4256V24.4437H100.431C101.041 24.4277 101.647 24.5366 102.213 24.7637C102.672 24.9498 103.065 25.2685 103.34 25.6787C103.545 25.9903 103.681 26.3421 103.738 26.7103C103.795 27.0786 103.772 27.4547 103.67 27.8133C103.569 28.1718 103.391 28.5046 103.149 28.7889C102.907 29.0733 102.606 29.3027 102.267 29.4616C101.759 29.6939 101.206 29.8119 100.647 29.807L98.7619 29.8269V32.4976L99.7746 32.6785V33.6531L96.1455 33.6622ZM98.7619 28.5846H100.364C100.97 28.5846 101.416 28.464 101.702 28.2229C101.85 28.0899 101.965 27.9253 102.04 27.7415C102.115 27.5577 102.148 27.3594 102.135 27.1615C102.145 26.9615 102.113 26.7616 102.04 26.5747C101.968 26.3878 101.857 26.2181 101.715 26.0765C101.433 25.8089 101.007 25.6751 100.442 25.6751H98.7728L98.7619 28.5846ZM102.182 33.6622L100.413 29.42L101.915 29.1741L103.418 32.523L104.145 32.6749V33.6622H102.182Z" fill="#068DAA"/>
<path d="M108.204 33.6623L105.167 25.5252L104.378 25.4239V24.4438H107.746V25.4257L106.906 25.5577L108.835 31.1742L109.006 31.7763H109.044L109.226 31.1814L111.18 25.5523L110.22 25.4257V24.4438H113.493V25.4257L112.691 25.527L109.769 33.6641L108.204 33.6623Z" fill="#068DAA"/>
<path d="M114.202 33.6623V32.6877L115.214 32.5068V25.6156L114.202 25.4257V24.4438H117.818V25.4257L116.813 25.6156V32.4978L117.818 32.6786V33.6533L114.202 33.6623Z" fill="#068DAA"/>
<path d="M122.993 33.796C122.175 33.8195 121.366 33.6194 120.654 33.2173C120.009 32.8328 119.493 32.2664 119.171 31.5899C118.815 30.8327 118.64 30.0042 118.658 29.1687V28.9336C118.642 28.1085 118.816 27.2907 119.167 26.5431C119.486 25.8711 119.991 25.303 120.622 24.9048C121.303 24.4921 122.09 24.2843 122.887 24.3063C123.469 24.3008 124.048 24.3925 124.6 24.5775C125.102 24.7462 125.569 25.0061 125.976 25.3442V27.4816H124.753L124.587 26.0567C124.443 25.953 124.287 25.8656 124.123 25.7963C123.944 25.7216 123.757 25.6664 123.565 25.6317C123.348 25.592 123.128 25.5727 122.907 25.5739C122.399 25.5606 121.899 25.7067 121.478 25.9916C121.068 26.2867 120.752 26.6937 120.569 27.1633C120.349 27.7261 120.243 28.3264 120.256 28.93V29.1777C120.241 29.7966 120.354 30.412 120.587 30.986C120.782 31.4584 121.114 31.8625 121.54 32.1469C121.983 32.426 122.501 32.5671 123.025 32.5519C123.305 32.552 123.584 32.5192 123.856 32.4543C124.108 32.3981 124.352 32.3119 124.584 32.1975L124.754 30.9064H125.965V33.0202C125.561 33.2745 125.119 33.4648 124.656 33.5844C124.114 33.7298 123.554 33.801 122.993 33.796Z" fill="#068DAA"/>
<path d="M126.999 33.6623V32.6877L128.011 32.5068V25.6156L126.999 25.4257V24.4438H134.059V26.8181H132.811L132.702 25.6717H129.611V28.281H132.864V29.516H129.615V32.4472H132.875L132.982 31.2754H134.219V33.6623H126.999Z" fill="#068DAA"/>
<path d="M24.4673 43.9999C35.8614 43.9999 45.0981 34.8135 45.0981 23.4816C45.0981 12.1497 35.8614 2.96338 24.4673 2.96338C13.0732 2.96338 3.83643 12.1497 3.83643 23.4816C3.83643 34.8135 13.0732 43.9999 24.4673 43.9999Z" fill="#C8E5EB"/>
<path fill-rule="evenodd" clip-rule="evenodd" d="M2.49175 31.1685C1.90841 30.0828 1.42192 28.9484 1.03786 27.7782L1.03665 27.7768C-0.284657 23.7144 -0.344221 19.3502 0.865725 15.2537C2.07567 11.1571 4.49896 7.51825 7.81945 4.81188C11.1399 2.10552 15.2035 0.457272 19.48 0.0821484C23.7565 -0.292975 28.0474 0.622446 31.7929 2.70899C31.7969 2.71418 31.8009 2.71937 31.8049 2.72457C36.53 5.36993 40.0736 9.69571 41.7236 14.833C41.9175 15.4394 42.0836 16.0566 42.2217 16.6847L42.2254 16.6919C43.0368 20.3762 42.8475 24.209 41.6768 27.7964C40.5062 31.3839 38.3964 34.5968 35.5643 37.1052C32.7321 39.6135 29.2796 41.3268 25.5615 42.0692C21.8433 42.8116 17.9934 42.5562 14.4073 41.3293C13.7976 41.1208 13.2006 40.8851 12.6164 40.6223C8.28045 38.676 4.7166 35.3536 2.48368 31.176C3.4439 31.9577 4.47082 32.6547 5.55276 33.2591C7.31374 35.5483 9.55391 37.4295 12.1182 38.7725C11.8829 37.7069 11.7315 36.6247 11.6655 35.5357C11.6376 35.0993 11.6237 34.6605 11.6237 34.2193V34.0385C11.6702 28.4363 13.9409 23.0794 17.9411 19.1349C21.9413 15.1904 27.3468 12.9779 32.98 12.9795C33.9321 12.9756 34.8833 13.036 35.8272 13.1604C35.619 10.555 34.8934 8.02902 33.705 5.72399C30.1469 2.92292 25.7327 1.41577 21.1948 1.45272C16.6543 1.48968 12.2631 3.07027 8.75051 5.93198C5.23794 8.79369 2.81536 12.7643 1.88511 17.1844C0.955 21.6039 1.57273 26.2067 3.63571 30.2288L3.6372 30.23C4.18413 31.2936 4.82805 32.305 5.56083 33.2516C4.47889 32.6472 3.45197 31.9502 2.49175 31.1685ZM34.9745 20.6628C35.4936 19.0212 35.7944 17.319 35.869 15.5997L30 20.6628H34.9745ZM32.98 14.4171C31.865 14.417 30.752 14.5101 29.6527 14.6956L29.0236 19.5941L34.9127 14.5129C34.2763 14.4515 33.6327 14.4171 32.98 14.4171ZM31.609 26.979C32.7857 25.4991 33.7433 23.8592 34.4527 22.1094H28.3309L24.4109 25.4927L31.609 26.979ZM28.1472 15.0048C26.8891 15.3193 25.665 15.756 24.4927 16.3085L23.4545 24.4077L27.3727 21.0136L28.1472 15.0048ZM26.5236 31.5159C27.9951 30.5979 29.3398 29.4928 30.5236 28.2285L23.0382 26.6807L19.02 30.1471L26.5236 31.5159ZM15.9873 34.5195C18.9292 34.5223 21.8348 33.8731 24.4927 32.619L17.6036 31.3622L14.0546 34.4236C14.6909 34.4851 15.3364 34.5195 15.9873 34.5195ZM22.9091 17.1439C21.6683 17.8721 20.5101 18.7311 19.4545 19.7062L17.94 29.1562L21.7909 25.8236L22.9091 17.1439ZM16.2327 30.6317L17.6873 21.5579C14.8974 24.8757 13.2823 29.0141 13.0909 33.335L16.2327 30.6317ZM13.8182 39.5536C16.2101 40.5322 18.7718 41.0348 21.3582 41.0328L21.3563 41.0219C24.4282 41.0215 27.4583 40.314 30.2094 38.9548C32.9605 37.5956 35.358 35.6216 37.2142 33.1873C39.0703 30.753 40.3348 27.9245 40.9086 24.9232C41.4825 21.9218 41.35 18.8292 40.5217 15.8872C40.3533 15.2845 40.1563 14.6956 39.9308 14.1206C39.0837 11.9415 37.8557 9.92863 36.3036 8.17502C36.857 9.86793 37.1918 11.624 37.2999 13.4009C37.329 13.8367 37.3418 14.2761 37.3418 14.7173V14.8981C37.2877 20.4967 35.0155 25.8481 31.0185 29.7908C27.0215 33.7334 21.6223 35.9492 15.9927 35.957C15.04 35.9609 14.0881 35.9005 13.1436 35.7762C13.2435 37.0543 13.4695 38.3195 13.8182 39.5536Z" fill="#068DAA"/>
</svg>
