<svg width="81" height="80" viewBox="0 0 81 80" fill="none" xmlns="http://www.w3.org/2000/svg">
<path d="M38.4833 51.5833C45.9944 51.5833 52.0833 45.4944 52.0833 37.9833C52.0833 30.4723 45.9944 24.3833 38.4833 24.3833C30.9722 24.3833 24.8833 30.4723 24.8833 37.9833C24.8833 45.4944 30.9722 51.5833 38.4833 51.5833Z" stroke-linecap="round" stroke-linejoin="round"/>
<path d="M64 23C67.5899 23 70.5 20.0899 70.5 16.5C70.5 12.9101 67.5899 10 64 10C60.4101 10 57.5 12.9101 57.5 16.5C57.5 20.0899 60.4101 23 64 23Z" stroke-linecap="round" stroke-linejoin="round"/>
<path d="M36.2167 15.3167C38.7203 15.3167 40.75 13.287 40.75 10.7833C40.75 8.27964 38.7203 6.25 36.2167 6.25C33.713 6.25 31.6833 8.27964 31.6833 10.7833C31.6833 13.287 33.713 15.3167 36.2167 15.3167Z" stroke-linecap="round" stroke-linejoin="round"/>
<path d="M13.5499 28.9167C16.0536 28.9167 18.0833 26.887 18.0833 24.3833C18.0833 21.8796 16.0536 19.85 13.5499 19.85C11.0462 19.85 9.0166 21.8796 9.0166 24.3833C9.0166 26.887 11.0462 28.9167 13.5499 28.9167Z" stroke-linecap="round" stroke-linejoin="round"/>
<path d="M12.4167 62.9167C15.5463 62.9167 18.0833 60.3796 18.0833 57.25C18.0833 54.1204 15.5463 51.5833 12.4167 51.5833C9.28705 51.5833 6.75 54.1204 6.75 57.25C6.75 60.3796 9.28705 62.9167 12.4167 62.9167Z" stroke-linecap="round" stroke-linejoin="round"/>
<path d="M36.2164 71.9833C38.7201 71.9833 40.7498 69.9537 40.7498 67.45C40.7498 64.9463 38.7201 62.9167 36.2164 62.9167C33.7127 62.9167 31.6831 64.9463 31.6831 67.45C31.6831 69.9537 33.7127 71.9833 36.2164 71.9833Z" stroke-linecap="round" stroke-linejoin="round"/>
<path d="M66.8166 65.25C71.1981 65.25 74.75 61.6981 74.75 57.3166C74.75 52.9352 71.1981 49.3833 66.8166 49.3833C62.4352 49.3833 58.8833 52.9352 58.8833 57.3166C58.8833 61.6981 62.4352 65.25 66.8166 65.25Z" stroke-linecap="round" stroke-linejoin="round"/>
<path d="M50.5 44.5L61.1498 51.65" stroke-linecap="round" stroke-linejoin="round"/>
<path d="M36.2168 51.5833V62.9167" stroke-linecap="round" stroke-linejoin="round"/>
<path d="M26.0169 44.7833L16.9502 52.7167" stroke-linecap="round" stroke-linejoin="round"/>
<path d="M26.0168 31.1833L18.0835 26.65" stroke-linecap="round" stroke-linejoin="round"/>
<path d="M49 29L59 21" stroke-linecap="round" stroke-linejoin="round"/>
<path d="M38.4834 24.3833L37.3501 15.3167" stroke-linecap="round" stroke-linejoin="round"/>
</svg>
